<svg width="145" height="50" viewBox="0 0 145 50" fill="none" xmlns="http://www.w3.org/2000/svg">
<path d="M2.83728 21.4082H7.3668C8.38984 21.4082 9.20408 22.2279 9.20408 23.2205V40.0448C9.20408 41.0375 8.38984 41.8572 7.3668 41.8572H2.83728C1.81424 41.8572 1 41.0375 1 40.0448V23.2205C1 22.2279 1.81424 21.4082 2.83728 21.4082Z" stroke="white" stroke-width="2"/>
<path d="M26.7313 41.1158L26.7313 41.1157L13.575 22.4689L13.575 22.4689C13.1365 21.8474 13.1365 21.0098 13.575 20.3882L13.575 20.3882L26.7313 1.7414L26.7313 1.74138C27.0615 1.27332 27.5909 1 28.1501 1H35.0037C36.4051 1 37.2674 2.62467 36.4225 3.82214L37.2396 4.39865L36.4225 3.82215L25.5479 19.2352C25.5479 19.2352 25.5479 19.2352 25.5479 19.2352C24.6216 20.5481 24.6216 22.3091 25.5479 23.6219C25.5479 23.6219 25.5479 23.622 25.5479 23.622L36.4225 39.035L37.1248 38.5395L36.4225 39.035C37.2674 40.2325 36.4052 41.8571 35.0037 41.8571H28.1501C27.5909 41.8571 27.0615 41.5838 26.7313 41.1158Z" stroke="white" stroke-width="2"/>
<path d="M47.6422 23.6793L47.6422 23.6793L63.9901 46.3377C64.1965 46.6239 64.3076 46.9678 64.3076 47.3205C64.3076 48.2481 63.5557 49 62.6283 49H27.7128C26.2367 49 26.0626 46.852 27.5198 46.6146C27.5836 46.6042 27.6482 46.599 27.7128 46.599H45.436C48.5245 46.599 50.3142 43.1009 48.5075 40.5961L47.6965 41.181L48.5075 40.5961L35.4617 22.5091C35.0131 21.8872 35.0111 21.0485 35.4568 20.4245L48.7961 1.74845L48.7961 1.74843C49.1315 1.27876 49.6732 1 50.2504 1H57.2022C58.6558 1 59.5015 2.64316 58.6566 3.82623L47.6317 19.2619L47.6317 19.2619C46.6874 20.5842 46.6915 22.3615 47.6422 23.6793Z" stroke="white" stroke-width="2"/>
<path d="M8.1828 13.7755C8.1828 15.0744 6.93271 16.347 5.10116 16.347C3.26962 16.347 2.01953 15.0744 2.01953 13.7755C2.01953 12.4766 3.26962 11.2041 5.10116 11.2041C6.93271 11.2041 8.1828 12.4766 8.1828 13.7755Z" stroke="white" stroke-width="2"/>
<path d="M75.6513 36V14.1818H80.9247V23.4077H81.2124L88.4247 14.1818H94.6357L86.9013 23.919L94.7741 36H88.4673L83.0341 27.424L80.9247 30.0874V36H75.6513ZM96.7157 36V14.1818H101.989V23.4077H102.277L109.489 14.1818H115.7L107.966 23.919L115.839 36H109.532L104.099 27.424L101.989 30.0874V36H96.7157ZM123.054 14.1818V36H117.78V14.1818H123.054ZM138.157 20.723C138.086 19.9418 137.77 19.3345 137.209 18.9013C136.655 18.4609 135.863 18.2408 134.834 18.2408C134.152 18.2408 133.584 18.3295 133.129 18.5071C132.675 18.6847 132.334 18.9297 132.106 19.2422C131.879 19.5476 131.762 19.8991 131.755 20.2969C131.741 20.6236 131.805 20.9112 131.947 21.1598C132.096 21.4084 132.309 21.6286 132.586 21.8203C132.87 22.005 133.211 22.1683 133.608 22.3104C134.006 22.4524 134.454 22.5767 134.951 22.6832L136.826 23.1094C137.905 23.3438 138.857 23.6562 139.681 24.0469C140.512 24.4375 141.208 24.9027 141.769 25.4425C142.337 25.9822 142.767 26.6037 143.058 27.3068C143.349 28.0099 143.498 28.7983 143.506 29.6719C143.498 31.0497 143.15 32.2322 142.461 33.2195C141.773 34.2067 140.782 34.9631 139.489 35.4886C138.204 36.0142 136.652 36.277 134.834 36.277C133.008 36.277 131.417 36.0036 130.061 35.4567C128.704 34.9098 127.65 34.0788 126.897 32.9638C126.144 31.8487 125.757 30.4389 125.736 28.7344H130.785C130.828 29.4375 131.016 30.0234 131.35 30.4922C131.684 30.9609 132.142 31.3161 132.724 31.5575C133.314 31.799 133.996 31.9197 134.77 31.9197C135.48 31.9197 136.084 31.8239 136.581 31.6321C137.085 31.4403 137.472 31.174 137.742 30.8331C138.012 30.4922 138.15 30.1016 138.157 29.6612C138.15 29.2493 138.023 28.8977 137.774 28.6065C137.525 28.3082 137.142 28.0526 136.623 27.8395C136.112 27.6193 135.459 27.4169 134.663 27.2322L132.383 26.6996C130.494 26.2663 129.006 25.5668 127.92 24.6009C126.833 23.6278 126.293 22.3139 126.3 20.6591C126.293 19.3097 126.655 18.1271 127.387 17.1115C128.118 16.0959 129.131 15.304 130.423 14.7358C131.716 14.1676 133.189 13.8835 134.844 13.8835C136.535 13.8835 138.001 14.1712 139.244 14.7464C140.494 15.3146 141.464 16.1136 142.153 17.1435C142.841 18.1733 143.193 19.3665 143.207 20.723H138.157Z" fill="white"/>
</svg>
