<svg width="155" height="75" viewBox="0 0 155 75" fill="none" xmlns="http://www.w3.org/2000/svg">
<path d="M89.1927 58.0055V57.0055H88.1927H84.2295H80.3392H79.3392V58.0055V63.9436V66.5833H79.3381H79.3312H79.3243H79.3172H79.3102H79.303H79.2959H79.2887H79.2814H79.2741H79.2667H79.2593H79.2518H79.2443H79.2367H79.2291H79.2214H79.2137H79.2059H79.1981H79.1903H79.1823H79.1744H79.1664H79.1584H79.1503H79.1421H79.1339H79.1257H79.1174H79.1091H79.1008H79.0924H79.0839H79.0754H79.0669H79.0583H79.0497H79.0411H79.0324H79.0236H79.0148H79.006H78.9971H78.9882H78.9793H78.9703H78.9613H78.9522H78.9431H78.934H78.9248H78.9156H78.9063H78.897H78.8877H78.8783H78.8689H78.8595H78.85H78.8405H78.8309H78.8214H78.8117H78.8021H78.7924H78.7827H78.7729H78.7631H78.7533H78.7435H78.7336H78.7237H78.7137H78.7037H78.6937H78.6837H78.6736H78.6635H78.6533H78.6432H78.633H78.6228H78.6125H78.6022H78.5919H78.5816H78.5712H78.5608H78.5504H78.5399H78.5294H78.5189H78.5084H78.4978H78.4872H78.4766H78.466H78.4553H78.4447H78.4339H78.4232H78.4125H78.4017H78.3909H78.3801H78.3692H78.3583H78.3474H78.3365H78.3256H78.3146H78.3036H78.2926H78.2816H78.2706H78.2595H78.2484H78.2374H78.2262H78.2151H78.2039H78.1928H78.1816H78.1704H78.1591H78.1479H78.1366H78.1254H78.1141H78.1028H78.0915H78.0801H78.0688H78.0574H78.046H78.0346H78.0232H78.0118H78.0004H77.9889H77.9774H77.966H77.9545H77.943H77.9315H77.92H77.9084H77.8969H77.8853H77.8738H77.8622H77.8506H77.839H77.8274H77.8158H77.8042H77.7926H77.7809H77.7693H77.7577H77.746H77.7343H77.7227H77.711H77.6993H77.6876H77.6759H77.6642H77.6525H77.6408H77.6291H77.6174H77.6057H77.594H77.5823H77.5705H77.5588H77.5471H77.5354H77.5236H77.5119H77.5002H77.4884H77.4767H77.465H77.4532H77.4415H77.4297H77.418H77.4063H77.3946H77.3828H77.3711H77.3594H77.3477H77.3359H77.3242H77.3125H77.3008H77.2891H77.2774H77.2657H77.254H77.2423H77.2307H77.219H77.2073H77.1957H77.184H77.1724H77.1607H77.1491H77.1375H77.1259H77.1143H77.1027H77.0911H77.0795H77.0679H77.0564H77.0448H77.0333H77.0218H77.0103H76.9988H76.9873H76.9758H76.9643H76.9529H76.9414H76.93H76.9186H76.9072H76.8958H76.8844H76.873H76.8617H76.8504H76.839H76.8277H76.8165H76.8052H76.7939H76.7827H76.7715H76.7603H76.7491H76.7379H76.7268H76.7157H76.7046H76.6935H76.6824H76.6713H76.6603H76.6493H76.6383H76.6273H76.6164H76.6055H76.5946H76.5837H76.5728H76.562H76.5512H76.5404H76.5296H76.5188H76.5081H76.4974H76.4867H76.4761H76.4655H76.4549H76.4443H76.4338H76.4232H76.4127H76.4023H76.3918H76.3814H76.371H76.3607H76.3503H76.34H76.3298H76.3195H76.3093H76.2991H76.289H76.2788H76.2687H76.2587H76.2487H76.2387H76.2287H76.2187H76.2088H76.199H76.1891H76.1793H76.1695H76.1598H76.1501H76.1404H76.1308H76.1212H76.1116H76.1021H76.0926H76.0831H76.0737H76.0643H76.055H76.0456H76.0364H76.0271H76.0179H76.0088H75.9996H75.9905H75.9815H75.9725H75.9635H75.9546H75.9457H75.9369H75.9281H75.9193H75.9106H75.9019H75.8932H75.8846H75.8761H75.8676H75.8591H75.8507H75.8423H75.8339H75.8256H75.8174H75.8092H75.801H75.7929H75.7848H75.7768H75.7688H75.7609H75.753H75.7452H75.7374H75.7296H75.7219H75.7143H75.7067H75.6991H75.6916H75.6842H75.6768H75.6694H75.6621H75.6549H75.6477H75.6405H75.6334H75.6264H75.6194H75.6124H75.6056H75.5987H75.5919H75.5852H75.5785H75.5719H75.5653H75.5588H75.5524H75.5459H75.5396H75.5333H75.5271H75.5209H75.5148H75.5087H75.5027H75.4967H75.4908H75.485H75.4792H75.4735H75.4678H75.4622H75.4567H75.4512H75.4457H75.4404H75.4351H75.4298H75.4246H75.4195H75.4145H75.4095H75.4045H75.3996H75.3948H75.3901H75.3854H75.3808H75.3762H75.3717H75.3673H75.3629H75.3586H75.3544H75.3502H75.3461H75.3421H75.3381H75.3342H75.3304H75.3266H75.3229H75.3193H75.3157H75.3122H75.3088H75.3054H75.3021H75.2989H75.2957H75.2927H75.2896H75.2867H75.2838H75.281H75.2783H75.2757H75.2731H75.2706H75.2681H75.2658H75.2635H75.2613H75.2591H75.257H75.2551H75.2531H75.2513H75.2495H75.2478H75.2462H75.2447H75.2432H75.2418H75.2405H75.2393H75.2381H75.237H75.236H75.2351H75.2343H75.2335H75.2328H75.2322H75.2317H75.2312H75.2309H75.2306H75.2304H75.2303L75.2302 67.5833V66.5833C74.6998 66.5833 74.1912 66.3727 73.8162 65.9976C73.4412 65.6226 73.2305 65.114 73.2305 64.5836V56.5845L84.2295 45.5855L95.2285 56.5845V64.5836C95.2285 65.114 95.0178 65.6226 94.6427 65.9976C94.2677 66.3727 93.7591 66.5833 93.2287 66.5833V67.5833L93.2287 66.5833H93.2285H93.2283H93.228H93.2276H93.2271H93.2265H93.2259H93.2251H93.2243H93.2234H93.2224H93.2213H93.2201H93.2189H93.2175H93.2161H93.2146H93.213H93.2113H93.2096H93.2077H93.2058H93.2038H93.2017H93.1996H93.1973H93.195H93.1926H93.1901H93.1876H93.1849H93.1822H93.1794H93.1765H93.1736H93.1705H93.1674H93.1642H93.161H93.1576H93.1542H93.1507H93.1472H93.1435H93.1398H93.136H93.1322H93.1282H93.1242H93.1201H93.116H93.1117H93.1074H93.1031H93.0986H93.0941H93.0895H93.0849H93.0802H93.0754H93.0705H93.0656H93.0606H93.0555H93.0504H93.0452H93.0399H93.0346H93.0292H93.0237H93.0181H93.0125H93.0069H93.0011H92.9953H92.9895H92.9835H92.9776H92.9715H92.9654H92.9592H92.953H92.9466H92.9403H92.9338H92.9274H92.9208H92.9142H92.9075H92.9008H92.894H92.8871H92.8802H92.8733H92.8662H92.8591H92.852H92.8448H92.8375H92.8302H92.8229H92.8154H92.8079H92.8004H92.7928H92.7852H92.7775H92.7697H92.7619H92.754H92.7461H92.7381H92.7301H92.722H92.7139H92.7057H92.6975H92.6892H92.6809H92.6725H92.6641H92.6556H92.6471H92.6385H92.6298H92.6212H92.6124H92.6037H92.5948H92.586H92.5771H92.5681H92.5591H92.55H92.5409H92.5318H92.5226H92.5134H92.5041H92.4948H92.4854H92.476H92.4665H92.457H92.4475H92.4379H92.4283H92.4186H92.4089H92.3992H92.3894H92.3796H92.3697H92.3598H92.3499H92.3399H92.3299H92.3198H92.3097H92.2996H92.2894H92.2792H92.269H92.2587H92.2484H92.238H92.2276H92.2172H92.2068H92.1963H92.1857H92.1752H92.1646H92.154H92.1433H92.1326H92.1219H92.1112H92.1004H92.0896H92.0787H92.0678H92.0569H92.046H92.035H92.024H92.013H92.002H91.9909H91.9798H91.9686H91.9575H91.9463H91.9351H91.9238H91.9126H91.9013H91.8899H91.8786H91.8672H91.8558H91.8444H91.833H91.8215H91.81H91.7985H91.787H91.7754H91.7639H91.7523H91.7407H91.729H91.7174H91.7057H91.694H91.6823H91.6705H91.6588H91.647H91.6352H91.6234H91.6116H91.5997H91.5879H91.576H91.5641H91.5522H91.5403H91.5283H91.5164H91.5044H91.4924H91.4804H91.4684H91.4564H91.4443H91.4323H91.4202H91.4081H91.3961H91.384H91.3718H91.3597H91.3476H91.3354H91.3233H91.3111H91.299H91.2868H91.2746H91.2624H91.2502H91.238H91.2258H91.2135H91.2013H91.1891H91.1768H91.1646H91.1523H91.1401H91.1278H91.1155H91.1033H91.091H91.0787H91.0664H91.0541H91.0418H91.0296H91.0173H91.005H90.9927H90.9804H90.9681H90.9558H90.9435H90.9312H90.9189H90.9066H90.8943H90.882H90.8697H90.8575H90.8452H90.8329H90.8206H90.8084H90.7961H90.7838H90.7716H90.7593H90.7471H90.7348H90.7226H90.7103H90.6981H90.6859H90.6737H90.6615H90.6493H90.6371H90.6249H90.6128H90.6006H90.5885H90.5763H90.5642H90.5521H90.54H90.5279H90.5158H90.5037H90.4916H90.4796H90.4675H90.4555H90.4435H90.4315H90.4195H90.4076H90.3956H90.3837H90.3717H90.3598H90.3479H90.3361H90.3242H90.3124H90.3005H90.2887H90.2769H90.2652H90.2534H90.2417H90.23H90.2183H90.2066H90.1949H90.1833H90.1717H90.1601H90.1485H90.137H90.1255H90.1139H90.1025H90.091H90.0796H90.0682H90.0568H90.0454H90.0341H90.0227H90.0115H90.0002H89.989H89.9777H89.9666H89.9554H89.9443H89.9332H89.9221H89.911H89.9H89.889H89.8781H89.8671H89.8562H89.8454H89.8345H89.8237H89.8129H89.8022H89.7915H89.7808H89.7701H89.7595H89.7489H89.7384H89.7278H89.7174H89.7069H89.6965H89.6861H89.6758H89.6655H89.6552H89.6449H89.6347H89.6246H89.6144H89.6044H89.5943H89.5843H89.5743H89.5644H89.5545H89.5446H89.5348H89.525H89.5153H89.5056H89.4959H89.4863H89.4767H89.4672H89.4577H89.4483H89.4389H89.4295H89.4202H89.4109H89.4017H89.3925H89.3834H89.3743H89.3652H89.3562H89.3473H89.3384H89.3295H89.3207H89.3119H89.3032H89.2945H89.2859H89.2773H89.2688H89.2603H89.2519H89.2435H89.2352H89.2269H89.2187H89.2105H89.2024H89.1943H89.1927V58.0055ZM93.1308 42.2984V46.5884L90.7252 44.1828V42.2984C90.7252 42.2339 90.7254 42.1685 90.728 42.101C90.7299 42.0504 90.7329 42.0042 90.7371 41.9634C90.7391 41.9623 90.7411 41.9612 90.7431 41.9601C90.7448 41.9592 90.7465 41.9583 90.748 41.9575H93.1079C93.1095 41.9583 93.1112 41.9592 93.1129 41.9601C93.1149 41.9612 93.1169 41.9623 93.1189 41.9634C93.1231 42.0042 93.1261 42.0504 93.128 42.101C93.1305 42.1685 93.1308 42.2339 93.1308 42.2984Z" stroke="white" stroke-width="2"/>
<path d="M81.3157 43.5042L70.2364 54.5852L70.2356 54.5855L70.2347 54.5852L70.2344 54.5843L70.2347 54.5835L81.3157 43.5042ZM98.2324 54.5852L87.1558 43.507L98.234 54.5835L98.2341 54.5836L98.2344 54.5843L98.234 54.5852L98.2332 54.5855L98.2324 54.5852L98.2324 54.5852Z" stroke="white" stroke-width="2"/>
<path d="M41.6844 34H39.6844V36H41.6844V34ZM41.6844 9.5V7.5H39.6844V9.5H41.6844ZM47.3894 9.5L48.9296 8.22419L48.3297 7.5H47.3894V9.5ZM60.8994 25.81V27.81H65.153L62.4396 24.5342L60.8994 25.81ZM58.2044 25.81H56.2044V27.81H58.2044V25.81ZM58.2044 9.5V7.5H56.2044V9.5H58.2044ZM64.9944 9.5H66.9944V7.5H64.9944V9.5ZM64.9944 34V36H66.9944V34H64.9944ZM59.2894 34L57.7491 35.2758L58.349 36H59.2894V34ZM45.7794 17.69V15.69H41.5257L44.2391 18.9658L45.7794 17.69ZM48.4744 17.69H50.4744V15.69H48.4744V17.69ZM48.4744 34V36H50.4744V34H48.4744ZM43.6844 34V9.5H39.6844V34H43.6844ZM41.6844 11.5H47.3894V7.5H41.6844V11.5ZM45.8491 10.7758L59.3591 27.0858L62.4396 24.5342L48.9296 8.22419L45.8491 10.7758ZM60.8994 23.81H58.2044V27.81H60.8994V23.81ZM60.2044 25.81V9.5H56.2044V25.81H60.2044ZM58.2044 11.5H64.9944V7.5H58.2044V11.5ZM62.9944 9.5V34H66.9944V9.5H62.9944ZM64.9944 32H59.2894V36H64.9944V32ZM60.8296 32.7242L47.3196 16.4142L44.2391 18.9658L57.7491 35.2758L60.8296 32.7242ZM45.7794 19.69H48.4744V15.69H45.7794V19.69ZM46.4744 17.69V34H50.4744V17.69H46.4744ZM48.4744 32H41.6844V36H48.4744V32Z" fill="white"/>
<path d="M25.8955 66H23.8955V68H25.8955V66ZM25.8955 46.995H27.8955V44.995H25.8955V46.995ZM18.3705 46.995H16.3705V48.995H18.3705V46.995ZM18.3705 41.5V39.5H16.3705V41.5H18.3705ZM40.3155 41.5H42.3155V39.5H40.3155V41.5ZM40.3155 46.995V48.995H42.3155V46.995H40.3155ZM32.8255 46.995V44.995H30.8255V46.995H32.8255ZM32.8255 66V68H34.8255V66H32.8255ZM27.8955 66V46.995H23.8955V66H27.8955ZM25.8955 44.995H18.3705V48.995H25.8955V44.995ZM20.3705 46.995V41.5H16.3705V46.995H20.3705ZM18.3705 43.5H40.3155V39.5H18.3705V43.5ZM38.3155 41.5V46.995H42.3155V41.5H38.3155ZM40.3155 44.995H32.8255V48.995H40.3155V44.995ZM30.8255 46.995V66H34.8255V46.995H30.8255ZM32.8255 64H25.8955V68H32.8255V64ZM44.6473 66H42.6473V68H44.6473V66ZM44.6473 41.5V39.5H42.6473V41.5H44.6473ZM61.6223 42.585L60.8026 44.4094L60.8124 44.4137L61.6223 42.585ZM65.4023 45.735L63.7208 46.818L63.7251 46.8245L63.7293 46.831L65.4023 45.735ZM65.4023 55.36L67.0664 56.4694L67.0708 56.4627L67.0752 56.4561L65.4023 55.36ZM61.6223 58.44L62.4197 60.2742L62.4321 60.2687L61.6223 58.44ZM48.4973 59.49L47.125 58.0351L43.4619 61.49H48.4973V59.49ZM51.5773 56.585H53.5773V51.9494L50.205 55.1301L51.5773 56.585ZM51.5773 66V68H53.5773V66H51.5773ZM59.8023 66L58.1502 67.1273L58.7457 68H59.8023V66ZM53.7123 57.075V55.075H49.9263L52.0602 58.2023L53.7123 57.075ZM61.0973 57.075L62.7463 55.9433L62.1504 55.075H61.0973V57.075ZM67.2223 66V68H71.0205L68.8713 64.8683L67.2223 66ZM51.5773 57.32L50.1396 58.7103L53.5773 62.2652V57.32H51.5773ZM48.4973 54.135V52.135H43.781L47.0596 55.5253L48.4973 54.135ZM58.6473 53.19L57.3337 51.6818L57.3214 51.6925L57.3093 51.7034L58.6473 53.19ZM58.6473 47.905L57.3093 49.3916L57.3214 49.4025L57.3337 49.4132L58.6473 47.905ZM48.4973 46.96L47.0596 45.5697L43.781 48.96H48.4973V46.96ZM51.5773 43.775H53.5773V38.8298L50.1396 42.3847L51.5773 43.775ZM46.6473 66V41.5H42.6473V66H46.6473ZM44.6473 43.5H55.8473V39.5H44.6473V43.5ZM55.8473 43.5C57.8781 43.5 59.5098 43.8285 60.8026 44.4093L62.4419 40.7607C60.5147 39.8948 58.2964 39.5 55.8473 39.5V43.5ZM60.8124 44.4137C62.1225 44.9939 63.0648 45.7994 63.7208 46.818L67.0837 44.652C65.9664 42.9172 64.3887 41.6228 62.4321 40.7563L60.8124 44.4137ZM63.7293 46.831C64.3713 47.8109 64.7323 49.0264 64.7323 50.565H68.7323C68.7323 48.3703 68.2066 46.3658 67.0752 44.6389L63.7293 46.831ZM64.7323 50.565C64.7323 52.0748 64.3739 53.2801 63.7293 54.2639L67.0752 56.4561C68.2039 54.7332 68.7323 52.7419 68.7323 50.565H64.7323ZM63.7382 54.2506C63.0863 55.2283 62.1406 56.0231 60.8124 56.6113L62.4321 60.2687C64.3706 59.4102 65.9449 58.1517 67.0664 56.4694L63.7382 54.2506ZM60.8248 56.6059C59.5256 57.1707 57.8857 57.49 55.8473 57.49V61.49C58.2888 61.49 60.4989 61.1093 62.4197 60.2741L60.8248 56.6059ZM55.8473 57.49H48.4973V61.49H55.8473V57.49ZM49.8695 60.9449L52.9495 58.0399L50.205 55.1301L47.125 58.0351L49.8695 60.9449ZM49.5773 56.585V66H53.5773V56.585H49.5773ZM51.5773 64H44.6473V68H51.5773V64ZM61.4543 64.8727L55.3643 55.9477L52.0602 58.2023L58.1502 67.1273L61.4543 64.8727ZM53.7123 59.075H61.0973V55.075H53.7123V59.075ZM59.4482 58.2067L65.5732 67.1317L68.8713 64.8683L62.7463 55.9433L59.4482 58.2067ZM67.2223 64H59.8023V68H67.2223V64ZM53.015 55.9297L49.935 52.7447L47.0596 55.5253L50.1396 58.7103L53.015 55.9297ZM48.4973 56.135H55.4273V52.135H48.4973V56.135ZM55.4273 56.135C57.1127 56.135 58.7644 55.7753 59.9852 54.6766L57.3093 51.7034C57.1301 51.8647 56.6352 52.135 55.4273 52.135V56.135ZM59.9608 54.6982C61.195 53.6233 61.7323 52.1563 61.7323 50.565H57.7323C57.7323 51.2137 57.5462 51.4967 57.3337 51.6818L59.9608 54.6982ZM61.7323 50.565C61.7323 48.9651 61.2044 47.4799 59.9608 46.3968L57.3337 49.4132C57.5368 49.5901 57.7323 49.8782 57.7323 50.565H61.7323ZM59.9852 46.4184C58.7644 45.3197 57.1127 44.96 55.4273 44.96V48.96C56.6352 48.96 57.1301 49.2303 57.3093 49.3916L59.9852 46.4184ZM55.4273 44.96H48.4973V48.96H55.4273V44.96ZM49.935 48.3503L53.015 45.1653L50.1396 42.3847L47.0596 45.5697L49.935 48.3503ZM49.5773 43.775V57.32H53.5773V43.775H49.5773Z" fill="white"/>
<path d="M109.509 65.58L108.79 67.446L108.806 67.4522L108.822 67.458L109.509 65.58ZM105.239 62.92L103.854 64.3622L103.861 64.3689L103.868 64.3756L105.239 62.92ZM102.439 58.895L100.604 59.6895L100.608 59.6995L102.439 58.895ZM102.439 48.64L104.27 49.4446L104.275 49.4344L102.439 48.64ZM105.239 44.58L103.868 43.1244L103.861 43.1311L103.854 43.1378L105.239 44.58ZM109.509 41.955L110.206 43.8298L110.213 43.8271L110.22 43.8244L109.509 41.955ZM120.954 42.2L120.138 44.0257L120.147 44.0296L120.954 42.2ZM125.434 45.63L126.776 47.1131L128.169 45.8527L126.998 44.3836L125.434 45.63ZM121.024 49.62L119.5 50.9153L120.837 52.4871L122.366 51.1031L121.024 49.62ZM118.399 47.485L117.47 49.2558L117.479 49.2605L117.488 49.2651L118.399 47.485ZM112.484 47.24L113.209 49.104L113.209 49.104L112.484 47.24ZM110.314 48.675L108.874 47.2877L108.873 47.2888L110.314 48.675ZM108.914 50.88L107.061 50.1286L107.052 50.1503L107.044 50.1722L108.914 50.88ZM108.914 56.62L107.044 57.3278L107.052 57.3497L107.061 57.3714L108.914 56.62ZM110.314 58.86L108.847 60.2188L108.873 60.247L108.9 60.2742L110.314 58.86ZM112.484 60.26L113.209 58.396L113.209 58.396L112.484 60.26ZM118.399 60.015L117.488 58.2349L117.479 58.2395L117.47 58.2442L118.399 60.015ZM121.024 57.88L122.366 56.3969L120.837 55.0129L119.5 56.5847L121.024 57.88ZM125.434 61.87L126.989 63.1284L128.18 61.657L126.776 60.3869L125.434 61.87ZM120.954 65.3L121.771 67.1257L121.782 67.1207L120.954 65.3ZM114.899 64.49C113.174 64.49 111.613 64.2204 110.197 63.702L108.822 67.458C110.719 68.1529 112.751 68.49 114.899 68.49V64.49ZM110.229 63.714C108.825 63.1725 107.626 62.4212 106.611 61.4644L103.868 64.3756C105.279 65.7055 106.927 66.7275 108.79 67.446L110.229 63.714ZM106.625 61.4778C105.627 60.5194 104.844 59.3955 104.27 58.0905L100.608 59.6995C101.388 61.4745 102.471 63.034 103.854 64.3622L106.625 61.4778ZM104.275 58.1006C103.717 56.8111 103.424 55.3698 103.424 53.75H99.4244C99.4244 55.8636 99.8087 57.8522 100.604 59.6894L104.275 58.1006ZM103.424 53.75C103.424 52.1298 103.717 50.7044 104.27 49.4445L100.608 47.8355C99.8086 49.6556 99.4244 51.6369 99.4244 53.75H103.424ZM104.275 49.4344C104.85 48.1067 105.633 46.9756 106.625 46.0222L103.854 43.1378C102.466 44.471 101.383 46.0466 100.604 47.8456L104.275 49.4344ZM106.611 46.0356C107.621 45.084 108.812 44.3476 110.206 43.8298L108.813 40.0801C106.94 40.7757 105.285 41.7893 103.868 43.1244L106.611 46.0356ZM110.22 43.8244C111.63 43.2884 113.183 43.01 114.899 43.01V39.01C112.742 39.01 110.702 39.3616 108.798 40.0856L110.22 43.8244ZM114.899 43.01C116.927 43.01 118.66 43.3647 120.138 44.0256L121.771 40.3744C119.702 39.4487 117.398 39.01 114.899 39.01V43.01ZM120.147 44.0296C121.656 44.6963 122.887 45.6431 123.87 46.8764L126.998 44.3836C125.601 42.6303 123.846 41.2904 121.762 40.3704L120.147 44.0296ZM124.093 44.1469L119.683 48.1369L122.366 51.1031L126.776 47.1131L124.093 44.1469ZM122.548 48.3247C121.608 47.2189 120.532 46.3303 119.311 45.7049L117.488 49.2651C118.18 49.6197 118.854 50.1544 119.5 50.9153L122.548 48.3247ZM119.329 45.7142C118.079 45.0581 116.705 44.75 115.249 44.75V48.75C116.127 48.75 116.853 48.9319 117.47 49.2558L119.329 45.7142ZM115.249 44.75C114.026 44.75 112.855 44.9498 111.759 45.376L113.209 49.104C113.793 48.8768 114.466 48.75 115.249 48.75V44.75ZM111.759 45.376C110.658 45.8045 109.688 46.4423 108.874 47.2877L111.755 50.0623C112.154 49.6477 112.631 49.3288 113.209 49.104L111.759 45.376ZM108.873 47.2888C108.095 48.0976 107.496 49.0546 107.061 50.1286L110.768 51.6314C111.032 50.9787 111.367 50.4658 111.756 50.0612L108.873 47.2888ZM107.044 50.1722C106.621 51.2906 106.424 52.4911 106.424 53.75H110.424C110.424 52.9089 110.555 52.1961 110.785 51.5878L107.044 50.1722ZM106.424 53.75C106.424 55.0089 106.621 56.2094 107.044 57.3278L110.785 55.9122C110.555 55.3039 110.424 54.5911 110.424 53.75H106.424ZM107.061 57.3714C107.494 58.4398 108.086 59.3968 108.847 60.2188L111.782 57.5012C111.376 57.0632 111.035 56.5269 110.768 55.8686L107.061 57.3714ZM108.9 60.2742C109.713 61.0868 110.674 61.702 111.759 62.124L113.209 58.396C112.614 58.1647 112.129 57.8465 111.729 57.4458L108.9 60.2742ZM111.759 62.124C112.855 62.5502 114.026 62.75 115.249 62.75V58.75C114.466 58.75 113.793 58.6232 113.209 58.396L111.759 62.124ZM115.249 62.75C116.705 62.75 118.079 62.4419 119.329 61.7858L117.47 58.2442C116.853 58.5681 116.127 58.75 115.249 58.75V62.75ZM119.311 61.7951C120.532 61.1697 121.608 60.2811 122.548 59.1753L119.5 56.5847C118.854 57.3456 118.18 57.8803 117.488 58.2349L119.311 61.7951ZM119.683 59.3631L124.093 63.3531L126.776 60.3869L122.366 56.3969L119.683 59.3631ZM123.88 60.6116C122.894 61.8297 121.653 62.7853 120.127 63.4793L121.782 67.1207C123.849 66.1813 125.595 64.8503 126.989 63.1284L123.88 60.6116ZM120.138 63.4744C118.66 64.1353 116.927 64.49 114.899 64.49V68.49C117.398 68.49 119.702 68.0513 121.771 67.1256L120.138 63.4744ZM136.469 60.575L134.472 60.674L134.706 65.3957L137.931 61.9396L136.469 60.575ZM136.084 52.805L134.621 51.4415L134.045 52.0598L134.087 52.904L136.084 52.805ZM146.619 41.5V39.5H145.749L145.156 40.1365L146.619 41.5ZM154.249 41.5L155.719 42.8566L158.817 39.5H154.249V41.5ZM143.749 52.875L145.195 54.2574L145.207 54.2446L145.219 54.2316L143.749 52.875ZM139.899 56.9L138.454 55.5176L138.445 55.5264L138.437 55.5354L139.899 56.9ZM130.274 66H128.274V68H130.274V66ZM130.274 41.5V39.5H128.274V41.5H130.274ZM137.134 41.5H139.134V39.5H137.134V41.5ZM137.134 66V68H139.134V66H137.134ZM146.724 66L145.154 67.2388L145.755 68H146.724V66ZM138.744 55.885L137.283 54.5192L136.11 55.7746L137.174 57.1238L138.744 55.885ZM143.259 51.055L144.844 49.8343L143.406 47.969L141.798 49.6892L143.259 51.055ZM154.774 66V68H158.84L156.359 64.7793L154.774 66ZM138.467 60.476L138.082 52.706L134.087 52.904L134.472 60.674L138.467 60.476ZM137.547 54.1685L148.082 42.8635L145.156 40.1365L134.621 51.4415L137.547 54.1685ZM146.619 43.5H154.249V39.5H146.619V43.5ZM152.78 40.1434L142.28 51.5184L145.219 54.2316L155.719 42.8566L152.78 40.1434ZM142.304 51.4926L138.454 55.5176L141.345 58.2824L145.195 54.2574L142.304 51.4926ZM138.437 55.5354L135.007 59.2104L137.931 61.9396L141.361 58.2646L138.437 55.5354ZM132.274 66V41.5H128.274V66H132.274ZM130.274 43.5H137.134V39.5H130.274V43.5ZM135.134 41.5V66H139.134V41.5H135.134ZM137.134 64H130.274V68H137.134V64ZM148.294 64.7612L140.314 54.6462L137.174 57.1238L145.154 67.2388L148.294 64.7612ZM140.205 57.2508L144.72 52.4208L141.798 49.6892L137.283 54.5192L140.205 57.2508ZM141.675 52.2757L153.19 67.2207L156.359 64.7793L144.844 49.8343L141.675 52.2757ZM154.774 64H146.724V68H154.774V64Z" fill="white"/>
<path d="M11.6737 36.7212L4.32314 47.7024L0.381151 53.8821C-0.126738 54.679 0.783849 57.2928 1.58075 57.8007C1.96432 58.0451 4.27107 57.8124 4.27107 57.8124L16.5157 39.5454L11.6737 36.7212V36.7212Z" fill="white"/>
<path d="M31.3899 11.2085C38.1651 15.5316 40.1529 24.5286 35.8298 31.3038C31.5067 38.0791 22.5097 40.0669 15.7345 35.7438C8.95926 31.4207 6.97143 22.4237 11.2945 15.6484C15.6177 8.87322 24.6147 6.88539 31.3899 11.2085Z" stroke="white" stroke-width="2" stroke-miterlimit="10" stroke-linecap="round" stroke-linejoin="round"/>
<path d="M33.5764 29.8574C37.101 24.3337 35.4803 16.9986 29.9566 13.474C24.4329 9.94947 17.0978 11.5701 13.5732 17.0939C10.0486 22.6176 11.6693 29.9527 17.193 33.4773C22.7167 37.0018 30.0518 35.3812 33.5764 29.8574Z" stroke="white" stroke-width="2" stroke-miterlimit="10" stroke-linecap="round" stroke-linejoin="round"/>
<path d="M12.1011 37.6988L15.0963 39.6091L4.48203 56.2445L4.48191 56.2447C3.9991 57.0018 2.93422 57.2532 2.08088 56.708L2.08008 56.7075C1.22468 56.162 1.00445 55.0899 1.48646 54.3348L1.48655 54.3346L12.1011 37.6988Z" stroke="white" stroke-width="2" stroke-miterlimit="10" stroke-linecap="round" stroke-linejoin="round"/>
</svg>
