<svg width="178" height="152" viewBox="0 0 178 152" fill="none" xmlns="http://www.w3.org/2000/svg">
<path d="M2.7 139V114.7H10.35V139H2.7ZM18.25 139V124.8C18.25 123.567 17.8667 122.617 17.1 121.95C16.3667 121.25 15.45 120.9 14.35 120.9C13.5833 120.9 12.9 121.067 12.3 121.4C11.7 121.7 11.2167 122.133 10.85 122.7C10.5167 123.267 10.35 123.967 10.35 124.8L7.4 123.5C7.4 121.567 7.81667 119.917 8.65 118.55C9.48333 117.15 10.6167 116.083 12.05 115.35C13.4833 114.583 15.1 114.2 16.9 114.2C18.6 114.2 20.1167 114.583 21.45 115.35C22.8167 116.117 23.9 117.183 24.7 118.55C25.5 119.917 25.9 121.55 25.9 123.45V139H18.25ZM33.8 139V124.8C33.8 123.567 33.4167 122.617 32.65 121.95C31.9167 121.25 31 120.9 29.9 120.9C29.1333 120.9 28.45 121.067 27.85 121.4C27.25 121.7 26.7667 122.133 26.4 122.7C26.0667 123.267 25.9 123.967 25.9 124.8L21.5 124.2C21.5667 122.133 22.05 120.367 22.95 118.9C23.8833 117.4 25.1 116.25 26.6 115.45C28.1333 114.617 29.85 114.2 31.75 114.2C33.6167 114.2 35.2667 114.6 36.7 115.4C38.1667 116.167 39.3167 117.283 40.15 118.75C41.0167 120.183 41.45 121.917 41.45 123.95V139H33.8ZM58.3523 139.55C55.719 139.55 53.369 139.017 51.3023 137.95C49.269 136.85 47.669 135.333 46.5023 133.4C45.3357 131.467 44.7523 129.283 44.7523 126.85C44.7523 124.417 45.319 122.25 46.4523 120.35C47.619 118.417 49.1857 116.9 51.1523 115.8C53.119 114.7 55.3357 114.15 57.8023 114.15C60.2023 114.15 62.319 114.667 64.1523 115.7C65.9857 116.733 67.419 118.167 68.4523 120C69.519 121.833 70.0523 123.933 70.0523 126.3C70.0523 126.733 70.019 127.2 69.9523 127.7C69.919 128.167 69.8357 128.717 69.7023 129.35L48.7523 129.4V124.15L66.4523 124.1L63.1523 126.3C63.119 124.9 62.9023 123.75 62.5023 122.85C62.1023 121.917 61.5023 121.217 60.7023 120.75C59.9357 120.25 58.9857 120 57.8523 120C56.6523 120 55.6023 120.283 54.7023 120.85C53.8357 121.383 53.1523 122.15 52.6523 123.15C52.1857 124.15 51.9523 125.367 51.9523 126.8C51.9523 128.233 52.2023 129.467 52.7023 130.5C53.2357 131.5 53.969 132.283 54.9023 132.85C55.869 133.383 57.0023 133.65 58.3023 133.65C59.5023 133.65 60.5857 133.45 61.5523 133.05C62.519 132.617 63.369 131.983 64.1023 131.15L68.3023 135.35C67.1023 136.75 65.6523 137.8 63.9523 138.5C62.2523 139.2 60.3857 139.55 58.3523 139.55ZM84.0949 139.5C81.7949 139.5 79.7449 138.95 77.9449 137.85C76.1783 136.75 74.7783 135.25 73.7449 133.35C72.7449 131.45 72.2449 129.283 72.2449 126.85C72.2449 124.417 72.7449 122.25 73.7449 120.35C74.7783 118.45 76.1783 116.95 77.9449 115.85C79.7449 114.75 81.7949 114.2 84.0949 114.2C85.7616 114.2 87.2616 114.517 88.5949 115.15C89.9616 115.783 91.0783 116.667 91.9449 117.8C92.8449 118.9 93.3449 120.167 93.4449 121.6V131.85C93.3449 133.283 92.8616 134.583 91.9949 135.75C91.1283 136.883 90.0116 137.8 88.6449 138.5C87.2783 139.167 85.7616 139.5 84.0949 139.5ZM85.4449 132.6C86.5449 132.6 87.4949 132.367 88.2949 131.9C89.0949 131.4 89.7283 130.717 90.1949 129.85C90.6616 128.983 90.8949 127.983 90.8949 126.85C90.8949 125.717 90.6616 124.733 90.1949 123.9C89.7616 123.033 89.1283 122.35 88.2949 121.85C87.4949 121.35 86.5616 121.1 85.4949 121.1C84.4283 121.1 83.4783 121.35 82.6449 121.85C81.8449 122.35 81.1949 123.033 80.6949 123.9C80.2283 124.767 79.9949 125.75 79.9949 126.85C79.9949 127.95 80.2283 128.933 80.6949 129.8C81.1616 130.667 81.8116 131.35 82.6449 131.85C83.4783 132.35 84.4116 132.6 85.4449 132.6ZM98.0949 139H90.5949V132.45L91.7449 126.55L90.4449 120.65V102.7H98.0949V139Z" fill="#1A17C1"/>
<path d="M115.481 139.55C112.848 139.55 110.498 139.017 108.431 137.95C106.398 136.85 104.798 135.333 103.631 133.4C102.465 131.467 101.881 129.283 101.881 126.85C101.881 124.417 102.448 122.25 103.581 120.35C104.748 118.417 106.315 116.9 108.281 115.8C110.248 114.7 112.465 114.15 114.931 114.15C117.331 114.15 119.448 114.667 121.281 115.7C123.115 116.733 124.548 118.167 125.581 120C126.648 121.833 127.181 123.933 127.181 126.3C127.181 126.733 127.148 127.2 127.081 127.7C127.048 128.167 126.965 128.717 126.831 129.35L105.881 129.4V124.15L123.581 124.1L120.281 126.3C120.248 124.9 120.031 123.75 119.631 122.85C119.231 121.917 118.631 121.217 117.831 120.75C117.065 120.25 116.115 120 114.981 120C113.781 120 112.731 120.283 111.831 120.85C110.965 121.383 110.281 122.15 109.781 123.15C109.315 124.15 109.081 125.367 109.081 126.8C109.081 128.233 109.331 129.467 109.831 130.5C110.365 131.5 111.098 132.283 112.031 132.85C112.998 133.383 114.131 133.65 115.431 133.65C116.631 133.65 117.715 133.45 118.681 133.05C119.648 132.617 120.498 131.983 121.231 131.15L125.431 135.35C124.231 136.75 122.781 137.8 121.081 138.5C119.381 139.2 117.515 139.55 115.481 139.55ZM142.624 139.55C140.124 139.55 137.857 139 135.824 137.9C133.79 136.8 132.19 135.283 131.024 133.35C129.857 131.417 129.274 129.25 129.274 126.85C129.274 124.417 129.857 122.25 131.024 120.35C132.224 118.417 133.84 116.9 135.874 115.8C137.907 114.7 140.19 114.15 142.724 114.15C144.624 114.15 146.357 114.483 147.924 115.15C149.524 115.783 150.94 116.75 152.174 118.05L147.274 122.95C146.707 122.317 146.04 121.85 145.274 121.55C144.54 121.25 143.69 121.1 142.724 121.1C141.624 121.1 140.64 121.35 139.774 121.85C138.94 122.317 138.274 122.983 137.774 123.85C137.307 124.683 137.074 125.667 137.074 126.8C137.074 127.933 137.307 128.933 137.774 129.8C138.274 130.667 138.957 131.35 139.824 131.85C140.69 132.35 141.657 132.6 142.724 132.6C143.724 132.6 144.607 132.433 145.374 132.1C146.174 131.733 146.857 131.233 147.424 130.6L152.274 135.5C151.007 136.833 149.574 137.85 147.974 138.55C146.374 139.217 144.59 139.55 142.624 139.55Z" fill="#F7AF25"/>
<path fill-rule="evenodd" clip-rule="evenodd" d="M165.5 138.8C172.404 138.8 178 133.378 178 126.691C178 123.772 176.934 121.094 175.158 119.003L158.022 136.395C160.107 137.905 162.696 138.8 165.5 138.8ZM155.821 134.354L172.952 116.968C170.871 115.468 168.293 114.581 165.5 114.581C158.596 114.581 153 120.003 153 126.691C153 129.598 154.058 132.267 155.821 134.354Z" fill="#FEC047"/>
<path fill-rule="evenodd" clip-rule="evenodd" d="M175.158 119.003L158.022 136.394C160.169 137.947 162.789 138.8 165.5 138.8C168.815 138.8 171.995 137.524 174.339 135.253C176.683 132.982 178 129.902 178 126.691C178 123.875 176.988 121.16 175.158 119.003Z" fill="#F7AF25"/>
<path d="M74.2517 34.1969C72.2908 32.1464 69.0392 32.0731 66.9868 34.034L52.1404 48.225C44.2091 55.8066 43.9235 68.423 51.5032 76.3507C59.711 84.9392 73.3747 85.2487 81.9614 77.0409L95.6251 63.9777C96.6101 63.0348 97.1832 61.7404 97.2125 60.3782C97.2454 59.0142 96.731 57.696 95.7881 56.711L74.2517 34.1969Z" fill="#ED5620"/>
<path d="M119.049 2.23744C109.003 -2.92925 96.5533 1.17554 91.3885 11.2233L82.4557 28.5835C81.8332 29.7956 81.716 31.2072 82.1316 32.5052C82.5473 33.8033 83.4645 34.8835 84.6765 35.506L112.39 49.7465C114.913 51.0427 118.011 50.0504 119.309 47.5274L128.022 30.5901C133.306 20.3135 129.322 7.51947 119.049 2.23744ZM121.252 26.4982L114.126 40.345L91.3116 28.6201L98.6149 14.4218C101.793 8.24449 109.333 5.94127 115.512 9.11964C121.911 12.4134 124.544 20.0957 121.252 26.4982Z" fill="#00AFA5"/>
<path d="M111.801 69.9225C114.616 69.9225 116.898 67.6405 116.898 64.8254C116.898 62.0103 114.616 59.7283 111.801 59.7283C108.986 59.7283 106.704 62.0103 106.704 64.8254C106.704 67.6405 108.986 69.9225 111.801 69.9225Z" fill="black"/>
<path d="M104.192 81.3269C106.669 81.3269 108.677 79.3187 108.677 76.8413C108.677 74.364 106.669 72.3557 104.192 72.3557C101.714 72.3557 99.7061 74.364 99.7061 76.8413C99.7061 79.3187 101.714 81.3269 104.192 81.3269Z" fill="black"/>
<path d="M123.187 81.327C125.539 81.327 127.446 79.4203 127.446 77.0684C127.446 74.7164 125.539 72.8098 123.187 72.8098C120.835 72.8098 118.928 74.7164 118.928 77.0684C118.928 79.4203 120.835 81.327 123.187 81.327Z" fill="black"/>
<path d="M67.4006 24.1052C70.2874 24.1052 72.6277 21.765 72.6277 18.8781C72.6277 15.9913 70.2874 13.651 67.4006 13.651C64.5137 13.651 62.1735 15.9913 62.1735 18.8781C62.1735 21.765 64.5137 24.1052 67.4006 24.1052Z" fill="black"/>
<path d="M78.3454 13.6511C80.3678 13.6511 82.0072 12.0117 82.0072 9.98936C82.0072 7.96705 80.3678 6.32764 78.3454 6.32764C76.3231 6.32764 74.6837 7.96705 74.6837 9.98936C74.6837 12.0117 76.3231 13.6511 78.3454 13.6511Z" fill="black"/>
<path d="M63.1127 9.42909C65.3171 9.42909 67.104 7.64213 67.104 5.43781C67.104 3.23349 65.3171 1.44653 63.1127 1.44653C60.9084 1.44653 59.1215 3.23349 59.1215 5.43781C59.1215 7.64213 60.9084 9.42909 63.1127 9.42909Z" fill="black"/>
</svg>
